0
SECTION
2
HEADER
9
$INSUNITS
70
4
9
$ACADVER
1
AC1014
9
$HANDSEED
5
FFFF
0
ENDSEC
0
SECTION
2
TABLES
0
TABLE
2
VPORT
5
8
100
AcDbSymbolTable
0
ENDTAB
0
TABLE
2
LTYPE
5
5
100
AcDbSymbolTable
0
LTYPE
5
14
100
AcDbSymbolTableRecord
100
AcDbLinetypeTableRecord
2
BYBLOCK
70
0
0
LTYPE
5
15
100
AcDbSymbolTableRecord
100
AcDbLinetypeTableRecord
2
BYLAYER
70
0
0
ENDTAB
0
TABLE
2
LAYER
5
2
100
AcDbSymbolTable
70
2
0
LAYER
5
50
100
AcDbSymbolTableRecord
100
AcDbLayerTableRecord
2
0
70
0
6
CONTINUOUS
0
ENDTAB
0
TABLE
2
STYLE
5
3
100
AcDbSymbolTable
70
1
0
STYLE
5
11
100
AcDbSymbolTableRecord
100
AcDbTextStyleTableRecord
2
STANDARD
70
0
0
ENDTAB
0
TABLE
2
VIEW
5
6
100
AcDbSymbolTable
70
0
0
ENDTAB
0
TABLE
2
UCS
5
7
100
AcDbSymbolTable
70
0
0
ENDTAB
0
TABLE
2
APPID
5
9
100
AcDbSymbolTable
70
2
0
APPID
5
12
100
AcDbSymbolTableRecord
100
AcDbRegAppTableRecord
2
ACAD
70
0
0
ENDTAB
0
TABLE
2
DIMSTYLE
5
A
100
AcDbSymbolTable
70
1
0
ENDTAB
0
TABLE
2
BLOCK_RECORD
5
1
100
AcDbSymbolTable
70
1
0
BLOCK_RECORD
5
1F
100
AcDbSymbolTableRecord
100
AcDbBlockTableRecord
2
*MODEL_SPACE
0
BLOCK_RECORD
5
1B
100
AcDbSymbolTableRecord
100
AcDbBlockTableRecord
2
*PAPER_SPACE
0
ENDTAB
0
ENDSEC
0
SECTION
2
BLOCKS
0
BLOCK
5
20
100
AcDbEntity
100
AcDbBlockBegin
2
*MODEL_SPACE
0
ENDBLK
5
21
100
AcDbEntity
100
AcDbBlockEnd
0
BLOCK
5
1C
100
AcDbEntity
100
AcDbBlockBegin
2
*PAPER_SPACE
0
ENDBLK
5
1D
100
AcDbEntity
100
AcDbBlockEnd
0
ENDSEC
0
SECTION
2
ENTITIES
0
LINE
5
100
100
AcDbEntity
8
0
100
AcDbLine
10
-64
20
-255.95500000000015
30
-4.4408920985006262e-14
11
-68.000000000000171
21
-255.95500000000015
31
-4.4408920985006262e-14
0
LINE
5
101
100
AcDbEntity
8
0
100
AcDbLine
10
-68.000000000000171
20
-255.95500000000015
30
-4.4408920985006262e-14
11
-68.000000000000171
21
-302.70500000000021
31
-2.6645352591003757e-14
0
ARC
5
102
100
AcDbEntity
8
0
100
AcDbCircle
10
-63.500000000000057
20
-302.70500000000021
30
-2.6645352591003757e-14
40
4.5000000000001172
210
0
220
0
230
1
100
AcDbArc
50
180
51
270
0
LINE
5
103
100
AcDbEntity
8
0
100
AcDbLine
10
-63.500000000000057
20
-307.20500000000027
30
-2.6645352591003757e-14
11
236.00000000000009
21
-307.20500000000027
31
-2.6645352591003757e-14
0
ARC
5
104
100
AcDbEntity
8
0
100
AcDbCircle
10
236.00000000000009
20
-302.70500000000015
30
-2.6645352591003757e-14
40
4.5000000000000995
210
0
220
0
230
1
100
AcDbArc
50
-90
51
0
0
LINE
5
105
100
AcDbEntity
8
0
100
AcDbLine
10
-75.749999999999346
20
-172.70500000000021
30
8.8817841970012523e-15
11
-75.749999999999346
21
-177.20500000000018
31
8.8817841970012523e-15
0
LINE
5
106
100
AcDbEntity
8
0
100
AcDbLine
10
-75.749999999999346
20
-177.20500000000018
30
8.8817841970012523e-15
11
-81.500000000000071
21
-177.20500000000015
31
8.8817841970012523e-15
0
ARC
5
107
100
AcDbEntity
8
0
100
AcDbCircle
10
-81.500000000000071
20
-190.20500000000021
30
1.7763568394002505e-14
40
12.999999999999998
210
0
220
0
230
1
100
AcDbArc
50
0
51
90
0
LINE
5
108
100
AcDbEntity
8
0
100
AcDbLine
10
-68.500000000000071
20
-190.20500000000021
30
1.7763568394002505e-14
11
-68.500000000000057
21
-184.45500000000021
31
1.7763568394002505e-14
0
LINE
5
109
100
AcDbEntity
8
0
100
AcDbLine
10
-68.500000000000057
20
-184.45500000000021
30
1.7763568394002505e-14
11
-64
21
-184.45500000000021
31
1.7763568394002505e-14
0
LINE
5
110
100
AcDbEntity
8
0
100
AcDbLine
10
-64
20
-184.45500000000021
30
1.7763568394002505e-14
11
-64
21
-255.95500000000015
31
-4.4408920985006262e-14
0
LINE
5
111
100
AcDbEntity
8
0
100
AcDbLine
10
-51.61999999999999
20
-254.45500000000015
30
-4.4408920985006262e-14
11
-51.619999999999997
21
-255.70751262658487
31
-4.4408920985006262e-14
0
ELLIPSE
5
112
100
AcDbEntity
8
0
100
AcDbEllipse
10
-52.114974746832331
20
-255.46002525316783
30
-4.4408920985006262e-14
11
0.42866070498882353
21
-0.42866070498882353
31
0.0
40
0.57735026918826282
41
5.7595865315823218
42
6.8067840827768507
0
LINE
5
113
100
AcDbEntity
8
0
100
AcDbLine
10
-51.86748737341528
20
-255.95500000000015
30
8.8817841970012523e-15
11
-51.872512626584701
21
-255.95500000000015
31
-4.4408920985006262e-14
0
ELLIPSE
5
114
100
AcDbEntity
8
0
100
AcDbEllipse
10
-51.625025253168928
20
-255.46002525316911
30
-4.4408920985006262e-14
11
-0.42866070498754955
21
-0.42866070498754955
31
0.0
40
0.57735026918922372
41
5.7595865315815882
42
6.8067840827775141
0
LINE
5
115
100
AcDbEntity
8
0
100
AcDbLine
10
-52.119999999999997
20
-255.70751262658493
30
-4.4408920985006262e-14
11
-52.119999999999997
21
-254.45500000000015
31
-4.4408920985006262e-14
0
LINE
5
116
100
AcDbEntity
8
0
100
AcDbLine
10
-52.119999999999997
20
-254.45500000000015
30
-4.4408920985006262e-14
11
-53.372512626584701
21
-254.45500000000015
31
-4.4408920985006262e-14
0
ELLIPSE
5
117
100
AcDbEntity
8
0
100
AcDbEllipse
10
-53.125025253173405
20
-253.96002525317357
30
-4.4408920985006262e-14
11
-0.42866070498305664
21
-0.42866070498305664
31
0.0
40
0.57735026919263266
41
5.7595865315789654
42
6.8067840827802844
0
LINE
5
118
100
AcDbEntity
8
0
100
AcDbLine
10
-53.620000000000012
20
-254.2075126265849
30
-4.4408920985006262e-14
11
-53.620000000000012
21
-254.20248737341547
31
-4.4408920985006262e-14
0
ELLIPSE
5
119
100
AcDbEntity
8
0
100
AcDbEllipse
10
-53.12502525316431
20
-254.44997474683589
30
-4.4408920985006262e-14
11
0.4286607049921845
21
-0.4286607049921845
31
0.0
40
0.57735026918586718
41
2.6179938779946434
42
3.6651914291848158
0
LINE
5
120
100
AcDbEntity
8
0
100
AcDbLine
10
-53.372512626584701
20
-253.95500000000021
30
-4.4408920985006262e-14
11
-52.120000000000005
21
-253.95500000000021
31
-4.4408920985006262e-14
0
LINE
5
121
100
AcDbEntity
8
0
100
AcDbLine
10
-52.120000000000005
20
-253.95500000000021
30
-4.4408920985006262e-14
11
-52.119999999999997
21
-252.70248737341544
31
-4.4408920985006262e-14
0
ELLIPSE
5
122
100
AcDbEntity
8
0
100
AcDbEllipse
10
-51.62502525316674
20
-252.94997474683342
30
-4.4408920985006262e-14
11
0.42866070498975223
21
-0.42866070498975223
31
0.0
40
0.57735026918761378
41
2.6179938779931629
42
3.6651914291864935
0
LINE
5
123
100
AcDbEntity
8
0
100
AcDbLine
10
-51.872512626584701
20
-252.45500000000015
30
-4.4408920985006262e-14
11
-51.867487373415308
21
-252.45500000000018
31
-4.4408920985006262e-14
0
ELLIPSE
5
124
100
AcDbEntity
8
0
100
AcDbEllipse
10
-52.114974746829859
20
-252.94997474683001
30
-4.4408920985006262e-14
11
-0.42866070498636477
21
-0.42866070498636477
31
0.0
40
0.57735026918996168
41
2.6179938779909775
42
3.6651914291886656
0
LINE
5
125
100
AcDbEntity
8
0
100
AcDbLine
10
-51.619999999999997
20
-252.70248737341541
30
-4.4408920985006262e-14
11
-51.619999999999997
21
-253.95500000000021
31
-4.4408920985006262e-14
0
LINE
5
126
100
AcDbEntity
8
0
100
AcDbLine
10
-51.619999999999997
20
-253.95500000000021
30
-4.4408920985006262e-14
11
-50.367487373415287
21
-253.95500000000021
31
-4.4408920985006262e-14
0
ELLIPSE
5
127
100
AcDbEntity
8
0
100
AcDbEllipse
10
-50.614974746826455
20
-254.44997474682663
30
2.6645352591003757e-14
11
-0.42866070498290854
21
-0.42866070498290854
31
0.0
40
0.57735026919267807
41
2.6179938779890173
42
3.665191429190569
0
LINE
5
128
100
AcDbEntity
8
0
100
AcDbLine
10
-50.120000000000005
20
-254.20248737341549
30
-2.6645352591003757e-14
11
-50.120000000000005
21
-254.2075126265849
31
-4.4408920985006262e-14
0
ELLIPSE
5
129
100
AcDbEntity
8
0
100
AcDbEllipse
10
-50.614974746827471
20
-253.96002525317272
30
-4.4408920985006262e-14
11
0.42866070498396275
21
-0.42866070498396275
31
0.0
40
0.57735026919175547
41
5.759586531579191
42
6.8067840827799673
0
LINE
5
130
100
AcDbEntity
8
0
100
AcDbLine
10
-50.367487373415301
20
-254.45500000000021
30
-4.4408920985006262e-14
11
-51.61999999999999
21
-254.45500000000015
31
-4.4408920985006262e-14
0
LINE
5
131
100
AcDbEntity
8
0
100
AcDbLine
10
184.62000000000003
20
-163.95500000000021
30
8.8817841970012523e-15
11
184.62000000000003
21
-165.20751262658493
31
8.8817841970012523e-15
0
ELLIPSE
5
132
100
AcDbEntity
8
0
100
AcDbEllipse
10
184.12502525315804
20
-164.96002525315819
30
8.8817841970012523e-15
11
0.42866070499845726
21
-0.42866070499845726
31
0.0
40
0.577350269181376
41
5.7595865315883898
42
6.8067840827707506
0
LINE
5
133
100
AcDbEntity
8
0
100
AcDbLine
10
184.37251262658475
20
-165.45500000000015
30
-4.4408920985006262e-14
11
184.36748737341529
21
-165.45500000000018
31
8.8817841970012523e-15
0
ELLIPSE
5
134
100
AcDbEntity
8
0
100
AcDbEllipse
10
184.61497474682517
20
-164.96002525317505
30
8.8817841970012523e-15
11
-0.42866070498160019
21
-0.42866070498160019
31
0.0
40
0.57735026919371324
41
5.7595865315781012
42
6.8067840827810571
0
LINE
5
135
100
AcDbEntity
8
0
100
AcDbLine
10
184.12000000000003
20
-165.20751262658493
30
8.8817841970012523e-15
11
184.12000000000003
21
-163.95500000000021
31
8.8817841970012523e-15
0
LINE
5
136
100
AcDbEntity
8
0
100
AcDbLine
10
184.12000000000003
20
-163.95500000000021
30
8.8817841970012523e-15
11
182.86748737341529
21
-163.95500000000021
31
8.8817841970012523e-15
0
ELLIPSE
5
137
100
AcDbEntity
8
0
100
AcDbEllipse
10
183.11497474683995
20
-163.46002525316032
30
8.8817841970012523e-15
11
-0.42866070499641762
21
-0.42866070499641762
31
0.0
40
0.57735026918268528
41
5.7595865315868444
42
6.8067840827720181
0
LINE
5
138
100
AcDbEntity
8
0
100
AcDbLine
10
182.62000000000003
20
-163.7075126265849
30
8.8817841970012523e-15
11
182.62000000000003
21
-163.70248737341547
31
8.8817841970012523e-15
0
ELLIPSE
5
139
100
AcDbEntity
8
0
100
AcDbEllipse
10
183.11497474683728
20
-163.94997474683743
30
8.8817841970012523e-15
11
0.42866070499376957
21
-0.42866070499376957
31
0.0
40
0.57735026918446042
41
2.617993877995421
42
3.6651914291841896
0
LINE
5
140
100
AcDbEntity
8
0
100
AcDbLine
10
182.86748737341529
20
-163.45500000000018
30
8.8817841970012523e-15
11
184.12000000000003
21
-163.45500000000018
31
8.8817841970012523e-15
0
LINE
5
141
100
AcDbEntity
8
0
100
AcDbLine
10
184.12000000000003
20
-163.45500000000018
30
8.8817841970012523e-15
11
184.12000000000003
21
-162.20248737341549
31
8.8817841970012523e-15
0
ELLIPSE
5
142
100
AcDbEntity
8
0
100
AcDbEllipse
10
184.61497474684452
20
-162.4499747468447
30
8.8817841970012523e-15
11
0.42866070500094289
21
-0.42866070500094289
31
0.0
40
0.57735026917980636
41
2.6179938780004277
42
3.6651914291792487
0
LINE
5
143
100
AcDbEntity
8
0
100
AcDbLine
10
184.36748737341529
20
-161.95500000000021
30
8.8817841970012523e-15
11
184.37251262658478
21
-161.95500000000021
31
8.8817841970012523e-15
0
ELLIPSE
5
144
100
AcDbEntity
8
0
100
AcDbEllipse
10
184.12502525317075
20
-162.4499747468295
30
8.8817841970012523e-15
11
-0.42866070498579761
21
-0.42866070498579761
31
0.0
40
0.57735026919044907
41
2.6179938779905969
42
3.6651914291887784
0
LINE
5
145
100
AcDbEntity
8
0
100
AcDbLine
10
184.62000000000006
20
-162.20248737341549
30
8.8817841970012523e-15
11
184.62000000000003
21
-163.45500000000018
31
8.8817841970012523e-15
0
LINE
5
146
100
AcDbEntity
8
0
100
AcDbLine
10
184.62000000000003
20
-163.45500000000018
30
8.8817841970012523e-15
11
185.87251262658472
21
-163.45500000000018
31
8.8817841970012523e-15
0
ELLIPSE
5
147
100
AcDbEntity
8
0
100
AcDbEllipse
10
185.62502525316077
20
-163.94997474683947
30
-6.2172489379008766e-14
11
-0.42866070499581527
21
-0.42866070499581527
31
0.0
40
0.57735026918307497
41
2.617993877996859
42
3.6651914291829666
0
LINE
5
148
100
AcDbEntity
8
0
100
AcDbLine
10
186.12000000000006
20
-163.70248737341544
30
-8.8817841970012523e-15
11
186.12000000000006
21
-163.70751262658487
31
8.8817841970012523e-15
0
ELLIPSE
5
149
100
AcDbEntity
8
0
100
AcDbEllipse
10
185.6250252531683
20
-163.46002525316845
30
8.8817841970012523e-15
11
0.42866070498817122
21
-0.42866070498817122
31
0.0
40
0.577350269189016
41
5.7595865315822534
42
6.8067840827770087
0
LINE
5
150
100
AcDbEntity
8
0
100
AcDbLine
10
185.87251262658481
20
-163.95500000000021
30
8.8817841970012523e-15
11
184.62000000000003
21
-163.95500000000021
31
8.8817841970012523e-15
0
LINE
5
151
100
AcDbEntity
8
0
100
AcDbLine
10
184.62000000000012
20
-254.45500000000015
30
-4.4408920985006262e-14
11
184.62000000000006
21
-255.70751262658487
31
-4.4408920985006262e-14
0
ELLIPSE
5
152
100
AcDbEntity
8
0
100
AcDbEllipse
10
184.12502525317416
20
-255.46002525317422
30
-4.4408920985006262e-14
11
0.42866070498240938
21
-0.42866070498240938
31
0.0
40
0.57735026919293175
41
5.7595865315782993
42
6.8067840827808732
0
LINE
5
153
100
AcDbEntity
8
0
100
AcDbLine
10
184.37251262658478
20
-255.95500000000018
30
-4.4408920985006262e-14
11
184.36748737341534
21
-255.95500000000015
31
-4.4408920985006262e-14
0
ELLIPSE
5
154
100
AcDbEntity
8
0
100
AcDbEllipse
10
184.61497474682608
20
-255.46002525317414
30
-4.4408920985006262e-14
11
-0.42866070498248593
21
-0.42866070498248593
31
0.0
40
0.57735026919293075
41
5.7595865315784156
42
6.8067840827807142
0
LINE
5
155
100
AcDbEntity
8
0
100
AcDbLine
10
184.12000000000006
20
-255.70751262658484
30
-4.4408920985006262e-14
11
184.12000000000006
21
-254.45500000000015
31
-4.4408920985006262e-14
0
LINE
5
156
100
AcDbEntity
8
0
100
AcDbLine
10
184.12000000000006
20
-254.45500000000015
30
-4.4408920985006262e-14
11
182.86748737341537
21
-254.45500000000015
31
-4.4408920985006262e-14
0
ELLIPSE
5
157
100
AcDbEntity
8
0
100
AcDbEllipse
10
183.11497474683151
20
-253.96002525316874
30
-4.4408920985006262e-14
11
-0.42866070498792624
21
-0.42866070498792624
31
0.0
40
0.57735026918883936
41
5.7595865315815953
42
6.806784082777563
0
LINE
5
158
100
AcDbEntity
8
0
100
AcDbLine
10
182.62000000000006
20
-254.20751262658484
30
-4.4408920985006262e-14
11
182.62000000000006
21
-254.20248737341547
31
-4.4408920985006262e-14
0
ELLIPSE
5
159
100
AcDbEntity
8
0
100
AcDbEllipse
10
183.11497474683898
20
-254.44997474683902
30
-4.4408920985006262e-14
11
0.42866070499533165
21
-0.42866070499533165
31
0.0
40
0.57735026918376919
41
2.6179938779967835
42
3.6651914291828027
0
LINE
5
160
100
AcDbEntity
8
0
100
AcDbLine
10
182.86748737341537
20
-253.95500000000015
30
-4.4408920985006262e-14
11
184.12000000000006
21
-253.95500000000013
31
-4.4408920985006262e-14
0
LINE
5
161
100
AcDbEntity
8
0
100
AcDbLine
10
184.12000000000006
20
-253.95500000000013
30
-4.4408920985006262e-14
11
184.12000000000006
21
-252.70248737341544
31
-4.4408920985006262e-14
0
ELLIPSE
5
162
100
AcDbEntity
8
0
100
AcDbEllipse
10
184.61497474683395
20
-252.94997474683407
30
-4.4408920985006262e-14
11
0.42866070499038333
21
-0.42866070499038333
31
0.0
40
0.57735026918708598
41
2.6179938779935226
42
3.665191429186113
0
LINE
5
163
100
AcDbEntity
8
0
100
AcDbLine
10
184.36748737341534
20
-252.45500000000021
30
-4.4408920985006262e-14
11
184.37251262658478
21
-252.45500000000015
31
-4.4408920985006262e-14
0
ELLIPSE
5
164
100
AcDbEntity
8
0
100
AcDbEllipse
10
184.12502525316594
20
-252.94997474683427
30
-4.4408920985006262e-14
11
-0.42866070499058967
21
-0.42866070499058967
31
0.0
40
0.5773502691870892
41
2.617993877993861
42
3.6651914291858234
0
LINE
5
165
100
AcDbEntity
8
0
100
AcDbLine
10
184.62000000000006
20
-252.70248737341541
30
-4.4408920985006262e-14
11
184.62000000000006
21
-253.95500000000013
31
-4.4408920985006262e-14
0
LINE
5
166
100
AcDbEntity
8
0
100
AcDbLine
10
184.62000000000006
20
-253.95500000000013
30
-4.4408920985006262e-14
11
185.87251262658481
21
-253.95500000000013
31
-4.4408920985006262e-14
0
ELLIPSE
5
167
100
AcDbEntity
8
0
100
AcDbEllipse
10
185.62502525317728
20
-254.44997474682287
30
-4.4408920985006262e-14
11
-0.42866070497923131
21
-0.42866070497923131
31
0.0
40
0.57735026919528143
41
2.6179938779865286
42
3.6651914291927481
0
LINE
5
168
100
AcDbEntity
8
0
100
AcDbLine
10
186.12000000000006
20
-254.20248737341538
30
-4.4408920985006262e-14
11
186.12000000000006
21
-254.20751262658484
31
-4.4408920985006262e-14
0
ELLIPSE
5
169
100
AcDbEntity
8
0
100
AcDbEllipse
10
185.62502525318439
20
-253.96002525318451
30
-4.4408920985006262e-14
11
0.42866070497213871
21
-0.42866070497213871
31
0.0
40
0.57735026920034316
41
5.7595865315719497
42
6.8067840827873711
0
LINE
5
170
100
AcDbEntity
8
0
100
AcDbLine
10
185.87251262658481
20
-254.45500000000015
30
-4.4408920985006262e-14
11
184.62000000000012
21
-254.45500000000015
31
-4.4408920985006262e-14
0
LINE
5
171
100
AcDbEntity
8
0
100
AcDbLine
10
68.5
20
-165.45500000000021
30
8.8817841970012523e-15
11
64
21
-165.45500000000021
31
8.8817841970012523e-15
0
LINE
5
172
100
AcDbEntity
8
0
100
AcDbLine
10
-64
20
-165.45500000000021
30
8.8817841970012523e-15
11
-68.5
21
-165.45500000000021
31
8.8817841970012523e-15
0
LWPOLYLINE
5
173
100
AcDbEntity
8
0
100
AcDbPolyline
90
4
70
1
43
0.0
10
56.750000000000604
20
-172.70500000000021
10
-56.749999999999361
20
-172.70500000000021
10
-56.749999999999361
20
-177.20500000000018
10
56.750000000000604
20
-177.20500000000018
0
LWPOLYLINE
5
174
100
AcDbEntity
8
0
100
AcDbPolyline
90
4
70
1
43
0.0
10
64
20
-255.95500000000021
10
68.5
20
-255.95500000000021
10
68.5
20
-184.45500000000021
10
64
20
-184.45500000000021
0
LWPOLYLINE
5
175
100
AcDbEntity
8
0
100
AcDbPolyline
90
4
70
1
43
0.0
10
-56.75000000000005
20
-263.20500000000015
10
-56.750000000000043
20
-267.70500000000021
10
56.750000000000114
20
-267.70500000000021
10
56.750000000000107
20
-263.20500000000015
0
LINE
5
176
100
AcDbEntity
8
0
100
AcDbLine
10
200.99999999999997
20
-165.45500000000018
30
8.8817841970012523e-15
11
196.50000000000003
21
-165.45500000000018
31
8.8817841970012523e-15
0
LWPOLYLINE
5
177
100
AcDbEntity
8
0
100
AcDbPolyline
90
4
70
1
43
0.0
10
196.50000000000003
20
-255.95500000000015
10
201.00000000000006
20
-255.95500000000015
10
200.99999999999997
20
-184.45500000000015
10
196.50000000000003
20
-184.45500000000015
0
LWPOLYLINE
5
178
100
AcDbEntity
8
0
100
AcDbPolyline
90
4
70
1
43
0.0
10
189.25000000000006
20
-177.20500000000018
10
189.25000000000006
20
-172.70500000000021
10
75.750000000000597
20
-172.70500000000021
10
75.750000000000597
20
-177.20500000000018
0
LWPOLYLINE
5
179
100
AcDbEntity
8
0
100
AcDbPolyline
90
4
70
1
43
0.0
10
189.24999999999997
20
-263.20500000000015
10
75.75
20
-263.20500000000015
10
75.75
20
-267.70500000000021
10
189.24999999999997
20
-267.70500000000015
0
CIRCLE
5
180
100
AcDbEntity
8
0
100
AcDbCircle
10
184.37000000000009
20
-166.70500000000018
30
8.8817841970012523e-15
40
0.50000000000000044
210
0
220
0
230
1
0
CIRCLE
5
181
100
AcDbEntity
8
0
100
AcDbCircle
10
-51.870000000000005
20
-257.20500000000015
30
-4.4408920985006262e-14
40
0.50000000000000044
210
0
220
0
230
1
0
CIRCLE
5
182
100
AcDbEntity
8
0
100
AcDbCircle
10
184.37000000000009
20
-257.20500000000015
30
-4.4408920985006262e-14
40
0.50000000000000044
210
0
220
0
230
1
0
LWPOLYLINE
5
183
100
AcDbEntity
8
0
100
AcDbPolyline
90
4
70
1
43
0.0
10
-80
20
-400
10
310
20
-400
10
310
20
-160
10
-80
20
-160
0
LWPOLYLINE
5
184
100
AcDbEntity
8
0
100
AcDbPolyline
90
4
70
1
43
0.0
10
75.75
20
-267.70500000000015
10
189.24999999999997
20
-267.70500000000015
10
189.24999999999997
20
-263.20500000000015
10
75.75
20
-263.20500000000015
0
LWPOLYLINE
5
185
100
AcDbEntity
8
0
100
AcDbPolyline
90
4
70
1
43
0.0
10
196.50000000000003
20
-255.95500000000015
10
201.00000000000006
20
-255.95500000000015
10
201.00000000000006
20
-184.45500000000015
10
196.50000000000003
20
-184.45500000000015
0
LWPOLYLINE
5
186
100
AcDbEntity
8
0
100
AcDbPolyline
90
4
70
1
43
0.0
10
75.750000000000597
20
-177.20500000000018
10
189.25000000000006
20
-177.20500000000018
10
189.25000000000006
20
-172.70500000000021
10
75.750000000000597
20
-172.70500000000021
0
LWPOLYLINE
5
187
100
AcDbEntity
8
0
100
AcDbPolyline
90
4
70
1
43
0.0
10
64
20
-255.95500000000021
10
68.5
20
-255.95500000000021
10
68.5
20
-184.45500000000021
10
64
20
-184.45500000000021
0
LWPOLYLINE
5
188
100
AcDbEntity
8
0
100
AcDbPolyline
90
4
70
1
43
0.0
10
-56.750000000000043
20
-267.70500000000021
10
56.750000000000114
20
-267.70500000000021
10
56.750000000000107
20
-263.20500000000015
10
-56.75000000000005
20
-263.20500000000015
0
LWPOLYLINE
5
189
100
AcDbEntity
8
0
100
AcDbPolyline
90
4
70
1
43
0.0
10
-56.749999999999361
20
-177.20500000000018
10
56.750000000000604
20
-177.20500000000018
10
56.750000000000604
20
-172.70500000000021
10
-56.749999999999361
20
-172.70500000000021
0
LWPOLYLINE
5
190
100
AcDbEntity
8
0
100
AcDbPolyline
90
4
70
1
43
0.0
10
-68.500000000000057
20
-255.95500000000015
10
-64
20
-255.95500000000015
10
-64
20
-184.45500000000021
10
-68.500000000000057
20
-184.45500000000021
0
LWPOLYLINE
5
191
100
AcDbEntity
8
0
100
AcDbPolyline
90
4
70
1
43
0.0
10
196.50000000000003
20
-165.45500000000018
10
200.99999999999997
20
-165.45500000000018
10
200.99999999999997
20
-160
10
196.50000000000003
20
-160
0
LWPOLYLINE
5
192
100
AcDbEntity
8
0
100
AcDbPolyline
90
4
70
1
43
0.0
10
64
20
-165.45500000000021
10
68.5
20
-165.45500000000021
10
68.5
20
-160
10
64
20
-160
0
LWPOLYLINE
5
193
100
AcDbEntity
8
0
100
AcDbPolyline
90
4
70
1
43
0.0
10
-68.5
20
-165.45500000000021
10
-64
20
-165.45500000000021
10
-64
20
-160
10
-68.5
20
-160
0
LWPOLYLINE
5
194
100
AcDbEntity
8
0
100
AcDbPolyline
90
4
70
1
43
0.0
10
-80
20
-177.20500000000018
10
-75.749999999999346
20
-177.20500000000018
10
-75.749999999999346
20
-172.70500000000021
10
-80
20
-172.70500000000021
0
LINE
5
195
100
AcDbEntity
8
0
100
AcDbLine
10
-74.999999999999972
20
-331.20500000000021
30
0
11
-74.999999999999986
21
-195.20500000000027
31
0
0
LINE
5
196
100
AcDbEntity
8
0
100
AcDbLine
10
-74.999999999999972
20
-331.20500000000021
30
0
11
-74.999999999999986
21
-195.20500000000027
31
0
0
LINE
5
197
100
AcDbEntity
8
0
100
AcDbLine
10
241.5000000000002
20
-302.70500000000015
30
2.6544753335782648e-14
11
241.5000000000002
21
-160
31
2.6544753335782648e-14
0
LINE
5
198
100
AcDbEntity
8
0
100
AcDbLine
10
241.5000000000002
20
-160
30
2.6544753335782648e-14
11
240.50000000000017
21
-160
31
2.6544753335782648e-14
0
LINE
5
199
100
AcDbEntity
8
0
100
AcDbLine
10
240.50000000000017
20
-160
30
2.6544753335782648e-14
11
240.50000000000017
21
-302.70500000000015
31
-2.6645352591003757e-14
0
LINE
5
200
100
AcDbEntity
8
0
100
AcDbLine
10
236.00000000000009
20
-307.20500000000027
30
-2.6645352591003757e-14
11
-63.499999999999943
21
-307.20500000000027
31
-2.6645352591003757e-14
0
LINE
5
201
100
AcDbEntity
8
0
100
AcDbLine
10
-63.499999999999943
20
-308.20500000000027
30
-2.6645352591003757e-14
11
236.00000000000009
21
-308.20500000000027
31
-2.6645352591003757e-14
0
LINE
5
202
100
AcDbEntity
8
0
100
AcDbLine
10
-69.000000000000171
20
-302.70500000000021
30
7.9936004319328558e-14
11
-69.000000000000171
21
-190.00000000000023
31
7.9936004319328558e-14
0
LINE
5
203
100
AcDbEntity
8
0
100
AcDbLine
10
-68.501616446650061
20
-190.00000000000023
30
1.7763568394002505e-14
11
-68.000000000000171
21
-190.00000000000023
31
7.9936004319328558e-14
0
LINE
5
204
100
AcDbEntity
8
0
100
AcDbLine
10
-68.000000000000171
20
-190.00000000000023
30
7.9936004319328558e-14
11
-68.000000000000171
21
-302.70500000000021
31
-2.6645352591003757e-14
0
ARC
5
205
100
AcDbEntity
8
0
100
AcDbCircle
10
-81.500000000000171
20
-190.20500000000015
30
-5.8130975060410951e-14
40
12.5
210
0
220
0
230
1
100
AcDbArc
50
0
51
83.107897420652847
0
ARC
5
206
100
AcDbEntity
8
0
100
AcDbCircle
10
-87
20
-195.70500000000013
30
0
40
12.000000000000002
210
0
220
0
230
1
100
AcDbArc
50
0
51
54.314665287347935
0
ARC
5
207
100
AcDbEntity
8
0
100
AcDbCircle
10
-81.500000000000057
20
-190.20500000000015
30
8.8817841970014732e-15
40
12.99999999999998
210
-6.832141690000804e-16
220
-3.4760126899875244e-29
230
1
100
AcDbArc
50
0
51
83.374190435176757
0
ARC
5
208
100
AcDbEntity
8
0
100
AcDbCircle
10
-86.999999999999972
20
-330.70500000000015
30
0
40
12.000000000000053
210
0
220
0
230
1
100
AcDbArc
50
-54.314665287348333
51
0
0
ARC
5
209
100
AcDbEntity
8
0
100
AcDbCircle
10
-63.500000000000171
20
-302.70500000000027
30
7.9936004319328558e-14
40
5.4999999999999982
210
0
220
0
230
1
100
AcDbArc
50
180
51
270.00000000000233
0
ARC
5
210
100
AcDbEntity
8
0
100
AcDbCircle
10
-63.500000000000171
20
-302.70500000000027
30
-2.664535259100382e-14
40
4.5000000000000018
210
-9.0772947305776229e-31
220
-9.4566662446503995e-16
230
1
100
AcDbArc
50
180
51
270.00000000000142
0
ARC
5
211
100
AcDbEntity
8
0
100
AcDbCircle
10
236.0000000000002
20
-302.70500000000027
30
-2.6645352591003757e-14
40
5.5000000000000071
210
0
220
0
230
1
100
AcDbArc
50
-90.00000000000118
51
0
0
ARC
5
212
100
AcDbEntity
8
0
100
AcDbCircle
10
236.0000000000002
20
-302.70500000000027
30
-2.4968077956824588e-14
40
4.4999999999999929
210
-8.82796523844958e-30
220
-3.7272769648426084e-16
230
1
100
AcDbArc
50
-90.000000000001435
51
0
0
ENDSEC
0
SECTION
2
OBJECTS
0
DICTIONARY
5
C
100
AcDbDictionary
3
ACAD_GROUP
350
D
3
ACAD_MLINESTYLE
350
17
0
DICTIONARY
5
D
100
AcDbDictionary
0
DICTIONARY
5
1A
330
C
100
AcDbDictionary
0
DICTIONARY
5
17
100
AcDbDictionary
0
ENDSEC
0
EOF
